<svg class="bi bi-camera-video" width="48" height="48" fill="currentColor" version="1.1" viewBox="0 0 16 16" xmlns="http://www.w3.org/2000/svg" xmlns:xlink="http://www.w3.org/1999/xlink">
 <defs>
  <linearGradient id="linearGradient929" x1="29.282" x2="1.2475" y1="35.776" y2="9.7737" gradientUnits="userSpaceOnUse">
   <stop stop-color="#06989a" offset="0"/>
   <stop stop-color="#16d0d2" offset="1"/>
  </linearGradient>
 </defs>
 <path transform="scale(.33333)" d="m4.779 14.815 23.735-0.21586 1.6794 3.6115 13.232-4.7716 1.1034 1.0116 0.27565 20.094-1.3018 0.76924-13.288-5.4984-1.1996 2.9369-3.9745 2.3937-19.213-0.83456-2.1426-2.3612 0.29636-16.033z" fill="url(#linearGradient929)"/>
 <path transform="matrix(.30705 0 0 .30705 -1.7016 -.64339)" d="m13 14.703c-2.9587 0-5.3945 2.8108-5.3945 6.2246v13.996c1e-7 3.4139 2.4359 6.2246 5.3945 6.2246h20.797c2.9587 0 5.3945-2.8108 5.3945-6.2246v-13.996c0-3.4139-2.4359-6.2246-5.3945-6.2246zm0 2.1484h20.797c1.94 0 3.5332 1.8377 3.5332 4.0762v13.996c0 2.2385-1.5932 4.0762-3.5332 4.0762h-20.797c-1.94 0-3.5312-1.8377-3.5312-4.0762v-13.996c0-2.2385 1.5912-4.0762 3.5312-4.0762z" color="#000000" color-rendering="auto" dominant-baseline="auto" fill="#000" image-rendering="auto" shape-rendering="auto" solid-color="#000000" stop-color="#000000" style="font-feature-settings:normal;font-variant-alternates:normal;font-variant-caps:normal;font-variant-east-asian:normal;font-variant-ligatures:normal;font-variant-numeric:normal;font-variant-position:normal;font-variation-settings:normal;inline-size:0;isolation:auto;mix-blend-mode:normal;paint-order:stroke fill markers;shape-margin:0;shape-padding:0;text-decoration-color:#000000;text-decoration-line:none;text-decoration-style:solid;text-indent:0;text-orientation:mixed;text-transform:none;white-space:normal"/>
 <g fill="#34e0e2" shape-rendering="auto">
  <path transform="matrix(.44352 0 0 .51175 -2.5004 -5.3743)" d="m10.801 19.355c-1.3431 0-2.4453 1.1022-2.4453 2.4453v8.3984c0 1.3431 1.1022 2.4453 2.4453 2.4453h14.398c1.3431 0 2.4453-1.1022 2.4453-2.4453v-8.3984c0-1.3431-1.1022-2.4453-2.4453-2.4453zm0 1.2891h14.398c0.6513 0 1.1562 0.50496 1.1562 1.1562v8.3984c0 0.6513-0.50496 1.1562-1.1562 1.1562h-14.398c-0.6513 0-1.1562-0.50496-1.1562-1.1562v-8.3984c0-0.6513 0.50495-1.1562 1.1562-1.1562z" color="#000000" color-rendering="auto" dominant-baseline="auto" image-rendering="auto" solid-color="#000000" stop-color="#000000" style="font-feature-settings:normal;font-variant-alternates:normal;font-variant-caps:normal;font-variant-east-asian:normal;font-variant-ligatures:normal;font-variant-numeric:normal;font-variant-position:normal;font-variation-settings:normal;inline-size:0;isolation:auto;mix-blend-mode:normal;paint-order:stroke fill markers;shape-margin:0;shape-padding:0;text-decoration-color:#000000;text-decoration-line:none;text-decoration-style:solid;text-indent:0;text-orientation:mixed;text-transform:none;white-space:normal"/>
  <path transform="matrix(.30705 0 0 .30705 11.348 .49887)" d="m9.9727 13a1.0001 1.0001 0 0 0-0.35742 0.07617l-12 5a1.0001 1.0001 0 0 0-0.61523 0.92383v11a1.0001 1.0001 0 0 0 0.61523 0.92383l12 5a1.0001 1.0001 0 0 0 1.3848-0.92383v-21a1.0001 1.0001 0 0 0-1.0273-1zm-0.97266 2.5v18l-10-4.166v-9.666z" color="#000000" color-rendering="auto" dominant-baseline="auto" image-rendering="auto" solid-color="#000000" stop-color="#000000" style="font-feature-settings:normal;font-variant-alternates:normal;font-variant-caps:normal;font-variant-east-asian:normal;font-variant-ligatures:normal;font-variant-numeric:normal;font-variant-position:normal;font-variation-settings:normal;inline-size:0;isolation:auto;mix-blend-mode:normal;shape-margin:0;shape-padding:0;text-decoration-color:#000000;text-decoration-line:none;text-decoration-style:solid;text-indent:0;text-orientation:mixed;text-transform:none;white-space:normal"/>
 </g>
 <path transform="matrix(.30705 0 0 .30705 5.2335 6.4669)" d="m29.918-8.5c-0.36772 0.0099-0.73059 0.0874-1.0703 0.22852l-2e-3 0.00195-12 5c-1.1131 0.46406-1.8466 1.5655-1.8457 2.7715v10.998c-1.12e-4 1.2052 0.73318 2.3057 1.8457 2.7695l12 5c1.9109 0.79624 4.1542-0.69975 4.1543-2.7695v-21c4.51e-4 -1.6628-1.4181-3.0442-3.0801-3zm0.05469 2c0.56291-0.01534 1.0275 0.43688 1.0273 1v21c4.74e-4 0.71394-0.72575 1.1984-1.3848 0.92383l-12-5c-0.37282-0.15544-0.61554-0.5199-0.61524-0.92383v-11c-3.02e-4 -0.40393 0.24241-0.76839 0.61523-0.92383l12-5c0.11345-0.04713 0.23462-0.072972 0.35742-0.076172zm-2.9727 5.5c-18 0.66667-9 0.33333 0 0z" color="#000000" color-rendering="auto" dominant-baseline="auto" fill="#000" image-rendering="auto" shape-rendering="auto" solid-color="#000000" stop-color="#000000" style="font-feature-settings:normal;font-variant-alternates:normal;font-variant-caps:normal;font-variant-east-asian:normal;font-variant-ligatures:normal;font-variant-numeric:normal;font-variant-position:normal;font-variation-settings:normal;inline-size:0;isolation:auto;mix-blend-mode:normal;paint-order:stroke fill markers;shape-margin:0;shape-padding:0;text-decoration-color:#000000;text-decoration-line:none;text-decoration-style:solid;text-indent:0;text-orientation:mixed;text-transform:none;white-space:normal"/>
</svg>
