<svg width="64" height="64" version="1.1" viewBox="0 0 64 64" xmlns="http://www.w3.org/2000/svg" xmlns:xlink="http://www.w3.org/1999/xlink">
 <defs>
  <linearGradient id="linearGradient4393">
   <stop stop-color="#204a87" offset="0"/>
   <stop stop-color="#3465a4" offset="1"/>
  </linearGradient>
  <linearGradient id="linearGradient4399" x1="48.714" x2="44.714" y1="45.586" y2="34.586" gradientTransform="translate(1.2856 1.4142)" gradientUnits="userSpaceOnUse" xlink:href="#linearGradient4393"/>
  <linearGradient id="linearGradient69042" x1="48.714" x2="44.714" y1="45.586" y2="34.586" gradientTransform="translate(-12.714 -17.586)" gradientUnits="userSpaceOnUse" xlink:href="#linearGradient4393"/>
  <linearGradient id="linearGradient69056" x1="27.244" x2="17.244" y1="54.588" y2="27.588" gradientTransform="translate(-1.2435 -2.5881)" gradientUnits="userSpaceOnUse">
   <stop stop-color="#3465a4" offset="0"/>
   <stop stop-color="#729fcf" offset="1"/>
  </linearGradient>
 </defs>
 <g stroke-width="2">
  <g stroke="#0b1521" stroke-linejoin="round">
   <path d="m9 49v-28l14 5v14l14 5v14z" fill="url(#linearGradient69056)"/>
   <path d="m37 59v-14l18-17v13z" fill="url(#linearGradient4399)"/>
   <path d="m9 21 20-16 13 5-19 16z" fill="#729fcf"/>
  </g>
  <path d="m11.008 47.606-0.008035-23.606 10 4v13l14 5 0.0081 10.185z" fill="none" stroke="#729fcf"/>
  <path d="m39.005 54.168-0.005041-8.1682 14-13 0.0021 7.1768z" fill="none" stroke="#3465a4"/>
  <path d="m23 40 19-17 13 5-18 17z" fill="#729fcf" stroke="#0b1521" stroke-linejoin="round"/>
  <path d="m23 40v-14l19-16v13z" fill="url(#linearGradient69042)" stroke="#0b1521" stroke-linejoin="round"/>
  <path d="m25 36v-9l15-13v8z" fill="none" stroke="#3465a4"/>
 </g>
 <g display="none" fill="#ef2929" fill-rule="evenodd" opacity=".588" stroke="#ef2929" stroke-width="1px">
  <path d="m9 35v14"/>
  <path d="m9 35 28 10"/>
  <path d="m55 28v13"/>
  <path d="m37 45 18-17"/>
  <path d="m23 40v-14"/>
  <path d="m29 5 13 5"/>
  <path d="m23 26 19-16"/>
  <path d="m19 13 10-8"/>
  <path d="m55 15-9 8"/>
  <path d="m42 23v-13"/>
  <path d="m42 23 14 5"/>
  <path d="m23 40 19-17"/>
 </g>
</svg>
