<?xml version="1.0" encoding="UTF-8" standalone="no"?>
<svg
   xmlns:dc="http://purl.org/dc/elements/1.1/"
   xmlns:cc="http://creativecommons.org/ns#"
   xmlns:rdf="http://www.w3.org/1999/02/22-rdf-syntax-ns#"
   xmlns:svg="http://www.w3.org/2000/svg"
   xmlns="http://www.w3.org/2000/svg"
   xmlns:sodipodi="http://sodipodi.sourceforge.net/DTD/sodipodi-0.dtd"
   xmlns:inkscape="http://www.inkscape.org/namespaces/inkscape"
   width="128.0px"
   height="128.0px"
   viewBox="0 0 128.0 128.0"
   version="1.1"
   id="SVGRoot"
   sodipodi:docname="generic.svg"
   inkscape:version="1.0.1 (1.0.1+r75)"
   inkscape:export-filename="/home/mnesarco/devel2/projects/active/Marz/projects/FreeCAD/Utils/freecad/mnesarco/resources/icon-variables.png"
   inkscape:export-xdpi="36"
   inkscape:export-ydpi="36">
  <defs
     id="defs833" />
  <sodipodi:namedview
     id="base"
     pagecolor="#ffffff"
     bordercolor="#666666"
     borderopacity="1.0"
     inkscape:pageopacity="0.0"
     inkscape:pageshadow="2"
     inkscape:zoom="4.1701315"
     inkscape:cx="42.223799"
     inkscape:cy="68.90613"
     inkscape:document-units="px"
     inkscape:current-layer="layer1"
     inkscape:document-rotation="0"
     showgrid="true"
     inkscape:window-width="1920"
     inkscape:window-height="1023"
     inkscape:window-x="0"
     inkscape:window-y="0"
     inkscape:window-maximized="1"
     inkscape:snap-global="false">
    <inkscape:grid
       type="xygrid"
       id="grid1403" />
  </sodipodi:namedview>
  <metadata
     id="metadata836">
    <rdf:RDF>
      <cc:Work
         rdf:about="">
        <dc:format>image/svg+xml</dc:format>
        <dc:type
           rdf:resource="http://purl.org/dc/dcmitype/StillImage" />
        <dc:title />
      </cc:Work>
    </rdf:RDF>
  </metadata>
  <g
     inkscape:label="Layer 1"
     inkscape:groupmode="layer"
     id="layer1">
    <rect
       style="fill:none;stroke:#34e0e2;stroke-width:4;stroke-linecap:round;stroke-linejoin:round;stroke-miterlimit:4;stroke-dasharray:none;paint-order:stroke fill markers"
       id="rect834"
       width="115"
       height="115"
       x="5"
       y="5"
       ry="10"
       transform="translate(1.5,1.5)" />
    <rect
       style="fill:none;stroke:#ffffff;stroke-width:2.05606;stroke-linecap:round;stroke-linejoin:round;stroke-miterlimit:4;stroke-dasharray:none;paint-order:stroke fill markers"
       id="rect836"
       width="115"
       height="115"
       x="5"
       y="5"
       ry="10"
       transform="matrix(0.97173262,0,0,0.97374046,3.2667113,3.1412213)" />
    <path
       id="path915"
       style="fill:none;stroke:#ffffff;stroke-width:2;stroke-miterlimit:4;stroke-dasharray:none"
       d="m 57.619141,16.75 c -2.83255,0.646414 -5.664972,1.293395 -8.498047,1.9375 -1.136778,4.907086 -2.268718,9.815292 -3.404297,14.722656 0.429754,1.79519 0.679498,3.68104 1.698417,5.265974 0.425397,0.850795 0.850795,1.701591 1.276192,2.552386 -0.951232,0.750501 -1.901987,1.533109 -2.853515,2.263672 -1.408307,-1.125172 -2.734887,-2.388159 -4.259766,-3.345704 -1.322931,-0.596831 -2.63269,-1.499727 -4.157419,-1.286811 -4.547136,0.01302 -9.094275,0.02511 -13.641409,0.03876 -1.443863,2.99327 -2.88488,5.987913 -4.326172,8.982421 3.130951,3.94369 6.258177,7.890337 9.386719,11.835938 1.665007,0.787846 3.293716,1.760159 5.162741,1.956222 0.935336,0.198837 1.870672,0.397675 2.806009,0.596512 -0.0079,1.210814 0.01573,2.448333 -0.01172,3.642578 -1.754407,0.395149 -3.562251,0.650038 -5.259766,1.238282 -1.295613,0.659764 -2.820111,1.127446 -3.606468,2.452988 -2.82612,3.562322 -5.649643,7.126706 -8.477516,10.687637 1.441288,2.99451 2.882313,5.98915 4.326172,8.982422 5.035804,0.01538 10.071619,0.02721 15.107422,0.04297 1.656156,-0.818474 3.441066,-1.482021 4.760207,-2.830134 0.733577,-0.602846 1.467154,-1.205692 2.20073,-1.808538 0.942958,0.760923 1.924747,1.51791 2.84375,2.28125 -0.785416,1.619804 -1.718617,3.193643 -2.3125,4.890625 -0.123447,0.717867 -0.359561,1.362787 -0.482422,2.15625 -0.291836,1.442691 0.397742,2.824973 0.623737,4.231768 0.867199,3.749516 1.732011,7.499576 2.600873,11.248706 3.240677,0.73633 6.480868,1.47481 9.720703,2.21484 3.147254,-3.92555 6.297933,-7.84837 9.443359,-11.775392 0.430245,-1.826994 0.984215,-3.671694 0.76178,-5.570252 -0.01434,-0.92515 -0.02869,-1.850301 -0.04303,-2.775451 1.182739,-0.262814 2.382542,-0.55817 3.554688,-0.800781 0.77958,1.625194 1.430598,3.337163 2.388672,4.861328 0.927419,1.114417 1.723338,2.490611 3.184531,2.96249 4.102562,1.963008 8.205033,3.926198 12.307656,5.889078 2.597609,-2.07314 5.196082,-4.1452 7.794922,-6.216802 -1.106045,-4.909522 -2.21195,-9.819076 -3.318359,-14.728516 -1.163624,-1.486216 -2.269696,-3.076271 -3.903508,-4.088858 -0.723571,-0.558923 -1.447141,-1.117845 -2.170711,-1.676767 0.531761,-1.089295 1.049188,-2.208641 1.589844,-3.279297 1.754838,0.405392 3.497693,0.965435 5.285156,1.166016 1.450943,-0.02839 3.024855,0.203181 4.305744,-0.645996 4.09141,-1.984597 8.1831,-3.968649 12.27434,-5.953614 -1e-5,-3.321614 0,-6.643229 0,-9.964843 -4.52704,-2.197255 -9.05566,-4.391242 -13.582037,-6.589844 -1.872331,-0.0096 -3.790317,-0.145569 -5.587376,0.493259 -0.902516,0.219695 -1.805031,0.43939 -2.707546,0.659085 -0.519997,-1.094055 -1.072379,-2.196005 -1.572266,-3.285157 1.41142,-1.118519 2.933592,-2.134584 4.207032,-3.404297 0.881238,-1.153456 2.044428,-2.23717 2.179795,-3.768706 0.999922,-4.437133 2.000229,-8.87418 2.999892,-13.311372 -2.598842,-2.071595 -5.197311,-4.143658 -7.794922,-6.216796 -4.54353,2.174665 -9.088208,4.34694 -13.630859,6.523437 -1.133473,1.448904 -2.447033,2.815893 -3.051117,4.593337 -0.402883,0.868628 -0.805766,1.737255 -1.208649,2.605882 C 71.369117,37.126329 70.163824,36.870713 69,36.582031 c 0.0035,-1.79929 0.161025,-3.619364 -0.03516,-5.40625 -0.353224,-1.410729 -0.473362,-3.000548 -1.588412,-4.063535 -2.84584,-3.546931 -5.688811,-7.096167 -8.536588,-10.641543 -0.406901,0.0931 -0.813802,0.186198 -1.220703,0.279297 z m 6.986328,36.056641 c 4.845333,-0.07067 9.470077,3.373723 10.800662,8.033057 1.286081,4.212829 -0.142204,9.109906 -3.567391,11.901856 -3.316805,2.79442 -8.281428,3.457547 -12.170164,1.489138 -4.260257,-2.002188 -6.927157,-6.875648 -6.265955,-11.542319 0.480006,-4.002536 3.242601,-7.640277 7.0238,-9.080475 1.326108,-0.529002 2.751448,-0.800063 4.179048,-0.801257 z"
       transform="translate(-1.875002,-0.0859365)" />
    <path
       id="path897"
       style="fill:none;stroke:#34e0e2;stroke-width:2;stroke-miterlimit:4;stroke-dasharray:none"
       sodipodi:type="inkscape:offset"
       inkscape:radius="0"
       inkscape:original="M 58.064453 18.699219 L 56.841797 18.978516 C 54.823551 19.438729 52.805799 19.901108 50.787109 20.359375 C 49.780479 24.708003 48.774349 29.056754 47.771484 33.40625 C 48.110636 34.744934 48.224175 36.164412 48.988281 37.351562 L 51.205078 41.783203 L 45.830078 46.068359 C 44.138756 44.72088 42.517781 43.260509 40.783203 41.982422 C 39.923919 41.636741 39.116823 41.061455 38.226562 40.857422 C 33.830342 40.870472 29.43333 40.881251 25.037109 40.894531 C 23.95572 43.135122 22.877702 45.377338 21.798828 47.619141 C 24.57327 51.11457 27.34678 54.610752 30.117188 58.109375 C 31.375494 58.679434 32.555724 59.476454 33.960938 59.619141 L 38.808594 60.650391 L 38.808594 67.523438 C 36.700362 68.006004 34.548046 68.361231 32.466797 68.921875 C 31.660832 69.376858 30.707588 69.648603 29.994141 70.21875 C 27.261982 73.663144 24.532917 77.109872 21.798828 80.552734 C 22.877701 82.794538 23.955722 85.036752 25.037109 87.277344 C 29.499996 87.291014 33.962896 87.300473 38.425781 87.314453 C 39.654658 86.682809 41.015215 86.261079 42.001953 85.25 L 45.830078 82.103516 L 51.205078 86.390625 C 50.267191 88.339668 49.204756 90.244313 48.34375 92.220703 C 48.196408 93.134016 47.816226 94.04771 47.816406 94.960938 C 48.805602 99.245822 49.795042 103.53023 50.787109 107.81445 C 53.213179 108.36592 55.638901 108.91892 58.064453 109.47266 C 60.856612 105.99141 63.649088 102.51042 66.441406 99.029297 C 66.717801 97.675647 67.228009 96.346982 67.054688 94.945312 L 66.980469 89.990234 L 73.683594 88.460938 C 74.62312 90.408411 75.449875 92.426276 76.458984 94.330078 C 77.082365 95.015107 77.559256 95.882722 78.273438 96.453125 C 82.238942 98.351615 86.205993 100.24878 90.171875 102.14648 C 92.116473 100.59416 94.06201 99.043004 96.007812 97.492188 C 95.027199 93.137255 94.04412 88.782878 93.064453 84.427734 C 92.178606 83.369066 91.460385 82.140729 90.257812 81.402344 L 86.337891 78.371094 L 89.320312 72.177734 C 91.428791 72.658097 93.520075 73.271309 95.638672 73.669922 C 96.562359 73.610042 97.539428 73.776926 98.429688 73.572266 C 102.38519 71.653171 106.34143 69.735634 110.29688 67.816406 C 110.29686 65.329427 110.29688 62.842448 110.29688 60.355469 C 106.28148 58.407082 102.26538 56.460136 98.25 54.511719 C 96.869343 54.543419 95.460672 54.341297 94.132812 54.820312 L 89.320312 55.994141 L 86.337891 49.800781 C 88.027714 48.452088 89.810115 47.197153 91.443359 45.791016 C 91.972731 45.031537 92.712066 44.37225 93.107422 43.548828 C 94.073152 39.258881 95.041653 34.969537 96.007812 30.679688 C 94.06201 29.128871 92.116474 27.577716 90.171875 26.025391 C 86.145969 27.952106 82.118981 29.876565 78.09375 31.804688 C 77.259376 32.905128 76.219434 33.877389 75.767578 35.214844 L 73.683594 39.710938 L 66.980469 38.181641 C 66.980768 36.019475 67.110518 33.843168 67.03125 31.689453 C 66.767469 30.801397 66.713807 29.811633 66.316406 28.988281 C 63.565745 25.55856 60.815096 22.128955 58.064453 18.699219 z M 64.587891 50.806641 C 69.562348 50.749781 74.39536 53.770084 76.529297 58.261719 C 78.786696 62.76003 78.145138 68.508671 74.951172 72.398438 C 71.839533 76.363628 66.351244 78.235856 61.464844 76.990234 C 57.563058 76.069818 54.165651 73.270175 52.521484 69.613281 C 52.168644 68.865406 51.808905 67.816387 51.617188 66.904297 C 50.493693 61.994619 52.489333 56.559137 56.521484 53.542969 C 58.814296 51.778304 61.69478 50.80247 64.587891 50.806641 z "
       d="m 58.064453,18.699219 -1.222656,0.279297 c -2.018246,0.460213 -4.035998,0.922592 -6.054688,1.380859 -1.00663,4.348628 -2.01276,8.697379 -3.015625,13.046875 0.339152,1.338684 0.452691,2.758162 1.216797,3.945312 l 2.216797,4.431641 -5.375,4.285156 c -1.691322,-1.347479 -3.312297,-2.80785 -5.046875,-4.085937 -0.859284,-0.345681 -1.66638,-0.920967 -2.556641,-1.125 -4.39622,0.01305 -8.793232,0.02383 -13.189453,0.03711 -1.081389,2.240591 -2.159407,4.482807 -3.238281,6.72461 2.774442,3.495429 5.547952,6.991611 8.31836,10.490234 1.258306,0.570059 2.438536,1.367079 3.84375,1.509766 l 4.847656,1.03125 v 6.873047 c -2.108232,0.482566 -4.260548,0.837793 -6.341797,1.398437 -0.805965,0.454983 -1.759209,0.726728 -2.472656,1.296875 -2.732159,3.444394 -5.461224,6.891122 -8.195313,10.333984 1.078873,2.241804 2.156894,4.484018 3.238281,6.72461 4.462887,0.01367 8.925787,0.02313 13.388672,0.03711 1.228877,-0.631644 2.589434,-1.053374 3.576172,-2.064453 l 3.828125,-3.146484 5.375,4.287109 c -0.937887,1.949043 -2.000322,3.853688 -2.861328,5.830078 -0.147342,0.913313 -0.527524,1.827007 -0.527344,2.740235 0.989196,4.284884 1.978636,8.569292 2.970703,12.853512 2.42607,0.55147 4.851792,1.10447 7.277344,1.65821 2.792159,-3.48125 5.584635,-6.96224 8.376953,-10.443363 0.276395,-1.35365 0.786603,-2.682315 0.613282,-4.083985 l -0.07422,-4.955078 6.703125,-1.529296 c 0.939526,1.947473 1.766281,3.965338 2.77539,5.86914 0.623381,0.685029 1.100272,1.552644 1.814454,2.123047 3.965504,1.89849 7.932555,3.795655 11.898437,5.693355 1.944598,-1.55232 3.890135,-3.103476 5.835937,-4.654292 -0.980613,-4.354933 -1.963692,-8.70931 -2.943359,-13.064454 -0.885847,-1.058668 -1.604068,-2.287005 -2.806641,-3.02539 l -3.919921,-3.03125 2.982421,-6.19336 c 2.108479,0.480363 4.199763,1.093575 6.31836,1.492188 0.923687,-0.05988 1.900756,0.107004 2.791016,-0.09766 3.955502,-1.919095 7.911742,-3.836632 11.867192,-5.75586 -2e-5,-2.486979 0,-4.973958 0,-7.460937 -4.0154,-1.948387 -8.0315,-3.895333 -12.04688,-5.84375 -1.380657,0.0317 -2.789328,-0.170422 -4.117188,0.308593 l -4.8125,1.173829 -2.982421,-6.19336 c 1.689823,-1.348693 3.472224,-2.603628 5.105468,-4.009765 0.529372,-0.759479 1.268707,-1.418766 1.664063,-2.242188 0.96573,-4.289947 1.934231,-8.579291 2.90039,-12.86914 -1.945802,-1.550817 -3.891338,-3.101972 -5.835937,-4.654297 -4.025906,1.926715 -8.052894,3.851174 -12.078125,5.779297 -0.834374,1.10044 -1.874316,2.072701 -2.326172,3.410156 l -2.083984,4.496094 -6.703125,-1.529297 c 2.99e-4,-2.162166 0.130049,-4.338473 0.05078,-6.492188 -0.263781,-0.888056 -0.317443,-1.87782 -0.714844,-2.701172 -2.750661,-3.429721 -5.50131,-6.859326 -8.251953,-10.289062 z m 6.523438,32.107422 c 4.974457,-0.05686 9.807469,2.963443 11.941406,7.455078 2.257399,4.498311 1.615841,10.246952 -1.578125,14.136719 -3.111639,3.96519 -8.599928,5.837418 -13.486328,4.591796 -3.901786,-0.920416 -7.299193,-3.720059 -8.94336,-7.376953 -0.35284,-0.747875 -0.712579,-1.796894 -0.904296,-2.708984 -1.123495,-4.909678 0.872145,-10.34516 4.904296,-13.361328 2.292812,-1.764665 5.173296,-2.740499 8.066407,-2.736328 z"
       transform="translate(-2.047854,-0.0859395)" />
  </g>
</svg>
