<svg width="48" height="48" version="1.1" viewBox="0 0 12.7 12.7" xmlns="http://www.w3.org/2000/svg">
 <g transform="matrix(.24767 0 0 .24767 20.199 -18.127)" fill="#e9b96e" stroke="#000" stroke-width="4.0376">
  <path transform="matrix(.26458 0 0 .26458 11.607 2.1686)" d="m-193.45 295.48v10.145c-4.7699 0.12651-9.0883 2.0411-12.32 5.1055l-7.1758-7.1758-0.70703 0.70703 7.1758 7.1758c-3.064 3.2315-4.9785 7.5493-5.1055 12.318h-10.145v1h10.145c0.12699 4.7695 2.0411 9.0887 5.1055 12.32l-7.1758 7.1758 0.70703 0.70703 7.1758-7.1758c3.2319 3.0638 7.5509 4.979 12.32 5.1055v10.145h1v-10.145c4.7682-0.12745 9.0853-2.044 12.316-5.1074l7.1758 7.1758 0.70703-0.70703-7.1758-7.1758c3.0638-3.2315 4.9804-7.5494 5.1074-12.318h10.145v-1h-10.145c-0.12698-4.7686-2.042-9.0869-5.1055-12.318l7.1758-7.1758-0.70703-0.70703-7.1758 7.1758c-3.2312-3.064-7.5497-4.978-12.318-5.1055v-10.145zm0 11.523v16.047l-11.352-11.352c2.9802-2.8131 6.9554-4.57 11.352-4.6953zm1 0c4.3952 0.12613 8.3701 1.8825 11.35 4.6953l-11.35 11.35zm-13.059 5.4024 11.35 11.35h-16.045c0.12577-4.3953 1.8828-8.3699 4.6953-11.35zm25.115 0c2.8122 2.9796 4.5696 6.9546 4.6953 11.35h-16.045zm-29.811 12.35h16.047l-11.352 11.352c-2.8131-2.9798-4.5695-6.9558-4.6953-11.352zm18.459 0h16.047c-0.12578 4.3954-1.8846 8.3698-4.6973 11.35zm-1.7051 0.70703v16.047c-4.3959-0.1253-8.3714-1.8826-11.352-4.6953zm1 2e-3 11.348 11.348c-2.9794 2.8124-6.9528 4.5712-11.348 4.6973zm-1 53.58v10.145c-4.7699 0.12651-9.0883 2.043-12.32 5.1074l-7.1758-7.1758-0.70703 0.70703 7.1758 7.1758c-3.0638 3.2315-4.9785 7.5494-5.1055 12.318h-10.145v1h10.145c0.12698 4.7691 2.0415 9.0868 5.1055 12.318l-7.1758 7.1758 0.70703 0.70703 7.1758-7.1758c3.232 3.0644 7.5504 4.979 12.32 5.1055v10.145h1v-10.145c4.7682-0.12746 9.0853-2.0421 12.316-5.1055l7.1758 7.1758 0.70703-0.70703-7.1758-7.1758c3.064-3.2315 4.9804-7.5493 5.1074-12.318h10.145v-1h-10.145c-0.12697-4.7685-2.0422-9.087-5.1055-12.318l7.1758-7.1758-0.70703-0.70703-7.1758 7.1758c-3.2312-3.064-7.5497-4.98-12.318-5.1074v-10.145zm0 11.523v16.049l-11.352-11.352c2.9802-2.8133 6.9552-4.572 11.352-4.6973zm1 0c4.3954 0.12612 8.3701 1.8843 11.35 4.6973l-11.35 11.35zm-13.059 5.4043 11.35 11.35h-16.045c0.12577-4.3953 1.8828-8.3699 4.6953-11.35zm25.115 0c2.8122 2.9796 4.5696 6.9546 4.6953 11.35h-16.045zm-29.811 12.35h16.045l-11.35 11.35c-2.8125-2.9797-4.5695-6.9543-4.6953-11.35zm18.459 0h16.047c-0.12578 4.3954-1.8846 8.3699-4.6973 11.35zm-1.7051 0.70508v16.047c-4.3962-0.1253-8.3714-1.8822-11.352-4.6953zm1 4e-3 11.348 11.348c-2.9794 2.8122-6.9529 4.5692-11.348 4.6953z" color="#000000" color-rendering="auto" dominant-baseline="auto" image-rendering="auto" shape-rendering="auto" solid-color="#000000" stop-color="#000000" stroke-linecap="round" style="font-feature-settings:normal;font-variant-alternates:normal;font-variant-caps:normal;font-variant-east-asian:normal;font-variant-ligatures:normal;font-variant-numeric:normal;font-variant-position:normal;font-variation-settings:normal;inline-size:0;isolation:auto;mix-blend-mode:normal;paint-order:stroke markers fill;shape-margin:0;shape-padding:0;text-decoration-color:#000000;text-decoration-line:none;text-decoration-style:solid;text-indent:0;text-orientation:mixed;text-transform:none;white-space:normal"/>
  <path transform="scale(.26458)" d="m-196.08 292.32c-2.377-0.15356-6.7705 2.6741-15.699 10.035-7.1776 5.9174-15.696 12.935-18.93 15.596-3.5513 2.9222-7.7748 8.362-10.662 13.732-2.6294 4.8907-5.1214 8.419-5.5371 7.8418-0.41573-0.57715 2.2984-9.3377 7.2756-15.489 6.3387-7.8337 20.332-16.828 15.171-18.989-3.8922-1.6298-24.112 7.5421-36.779 35.009-13.64 24.984-19.434 25.933-41.138 76.578 6.4169 14.242 15.386 28.312 27.626 38.117 5.076-1.436 10.848-2.5619 14.678-2.7715 14.335-0.78435 23.625-3.0269 43.092-10.398 9.669-3.6614 23.592-7.7356 30.939-9.0547 7.3479-1.3191 18.314-3.6185 24.371-5.1094 6.0569-1.4909 13.824-3.365 17.26-4.1641 7.82-1.8189 8.8228-2.9897 7.2168-8.418-2.7624-9.3365-23.557-12.5-43.584-6.6289-8.3647 2.452-20.013 2.9929-24.49 1.1367-4.3158-1.7892-10.071-13.323-8.5176-17.07 2.2349-5.391 16.002-23.828 25.471-34.107 8.3085-9.0201 10.7-10.6 25.734-17.014 9.1158-3.889 16.873-7.7934 17.238-8.6738 2.3317-5.6246-11.175-7.0492-31.055-3.2754-12.407 2.3552-13.87 3.0709-23.182 11.307-5.4667 4.835-10.09 8.4293-10.273 7.9863-0.66253-1.6008 10.715-13.81 24.934-26.754 10.412-9.4789 15.586-15.294 18.301-20.562 2.689-4.8386 2.9674-7.037-2.2969-7.7344-0.32207-0.13352-8.0269 4.8584-17.119 11.094-7.5871 5.2031-13.383 8.8899-17.176 10.951l-8.8867 5.7109-0.0781 0.0351c-0.28694 0.12544-0.95456 0.63074-1.6562 1.3438-0.70168 0.71301-1.4806 1.6275-2.2324 2.5762-1.5031 1.8966-2.9096 3.9408-3.5254 4.8867l-2e-3 4e-3 -7.9863 13.592c-0.29943 0.50736-0.9532 0.67575-1.4609 0.37695-0.50844-0.2989-0.6779-0.95257-0.37891-1.4609l8.0234-13.652 0.0137-0.0215c0.65745-1.01 2.0783-3.0789 3.6426-5.0527 0.78216-0.98693 1.5988-1.9475 2.3848-2.7461 0.73736-0.74927 1.413-1.3523 2.1738-1.7226 5.6028-2.7108 9.2166-8.2458 12.615-12.053 8.1368-9.0958 9.6621-13.702 4.9336-14.916-0.14129-0.0363-0.29075-0.0601-0.44921-0.0703z" style="paint-order:stroke markers fill"/>
 </g>
</svg>
