<?xml version="1.0" encoding="UTF-8" standalone="no"?>
<svg
   id="Layer_1"
   version="1.1"
   viewBox="0 0 64 64"
   xml:space="preserve"
   sodipodi:docname="save_next.svg"
   width="64"
   height="64"
   inkscape:version="1.4 (e7c3feb100, 2024-10-09)"
   xmlns:inkscape="http://www.inkscape.org/namespaces/inkscape"
   xmlns:sodipodi="http://sodipodi.sourceforge.net/DTD/sodipodi-0.dtd"
   xmlns="http://www.w3.org/2000/svg"
   xmlns:svg="http://www.w3.org/2000/svg"><defs
     id="defs1" /><sodipodi:namedview
     id="namedview1"
     pagecolor="#ffffff"
     bordercolor="#000000"
     borderopacity="0.25"
     inkscape:showpageshadow="2"
     inkscape:pageopacity="0.0"
     inkscape:pagecheckerboard="0"
     inkscape:deskcolor="#d1d1d1"
     inkscape:zoom="9.5223713"
     inkscape:cx="34.077646"
     inkscape:cy="42.426407"
     inkscape:window-width="1920"
     inkscape:window-height="1021"
     inkscape:window-x="1920"
     inkscape:window-y="0"
     inkscape:window-maximized="1"
     inkscape:current-layer="Layer_1" /><path
     style="fill:#e6e6e6;stroke:none;stroke-linecap:round;stroke-linejoin:round;paint-order:markers stroke fill"
     d="M 16.727273,4 16.592506,25.203806 45.261835,25.518854 44.727273,4 Z"
     id="path4" /><path
     d="m 49.818182,4 h -5.090909 v 15.272727 c 0,1.405091 -1.140364,2.545455 -2.545455,2.545455 H 19.272727 c -1.405091,0 -2.545454,-1.140364 -2.545454,-2.545455 V 4 H 9.0909091 C 6.2781818,4 4,6.2781818 4,9.0909091 V 54.909091 C 4,57.721818 6.2781818,60 9.0909091,60 H 54.909091 C 57.721818,60 60,57.721818 60,54.909091 V 14.181818 Z"
     id="path1"
     style="fill:#ffff00;stroke:#000000;stroke-width:2.54545"
     sodipodi:nodetypes="ccsssscsssssscc" /><path
     id="rect1"
     style="stroke-width:2.54545"
     d="m 34.545456,4 h 5.090909 v 12.727273 h -5.090909 z" /><path
     style="fill:#ffff00;stroke:#000000;stroke-width:2.54545;stroke-linecap:square;stroke-dasharray:none;paint-order:markers stroke fill"
     d="m 16.727273,4 h 28"
     id="path2" /><path
     id="path3"
     style="fill:#ff0000;stroke:#000000;stroke-width:2.54545;stroke-linecap:round;stroke-linejoin:round;stroke-dasharray:none;paint-order:markers stroke fill"
     d="m 26.001968,30.067832 v 6.144885 H 11.261203 v 4.628553 4.633521 h 14.740765 v 6.139917 L 35.075121,40.84127 Z" /><path
     d="m 53.138824,42.927388 v 1.578727 H 49.11462 l -1.207262,6.531592 h -1.609681 l 1.207261,-6.531592 h -4.79809 l -1.191782,6.531592 h -1.62516 l 1.207261,-6.531592 h -2.662166 v -1.578727 h 2.97172 l 0.897708,-4.751656 h -3.869428 v -1.594203 h 4.148026 l 1.176306,-6.299427 h 1.609681 l -1.160828,6.299427 h 4.782612 l 1.176306,-6.299427 h 1.609681 l -1.176305,6.299427 h 2.538344 v 1.594203 H 50.32188 l -0.882228,4.751656 z m -10.106943,0 h 4.782611 l 0.88223,-4.751656 H 43.91411 Z"
     id="text4"
     style="font-size:24px;font-family:'Liberation Serif';-inkscape-font-specification:'Liberation Serif, Normal';text-align:center;text-anchor:middle;stroke-width:1.32076;stroke-linecap:round;stroke-linejoin:round;paint-order:markers stroke fill"
     aria-label="#" /></svg>
