<svg class="bi bi-camera-video" width="48" height="48" fill="currentColor" version="1.1" viewBox="0 0 16 16" xmlns="http://www.w3.org/2000/svg">
 <defs>
  <linearGradient id="linearGradient860" x1="28.348" x2="-.72543" y1="25.774" y2="-3.2989" gradientUnits="userSpaceOnUse">
   <stop stop-color="#eeeeec" offset="0"/>
   <stop stop-color="#fff" offset="1"/>
  </linearGradient>
 </defs>
 <circle transform="matrix(.48154 0 0 .48154 1.3493 2.5886)" cx="13.852" cy="11.251" r="14.465" fill="url(#linearGradient860)" stroke="#000" stroke-linejoin="round" stroke-width="2.7689" style="paint-order:stroke fill markers"/>
 <circle transform="matrix(.39011 0 0 .39011 -2.533 -.1923)" cx="27" cy="21" r="17" fill="none" stroke="#729fcf" stroke-linejoin="round" stroke-width="1.7089" style="paint-order:stroke fill markers"/>
 <path transform="scale(.33333)" d="m23.961 8.375c-2.1049-0.0054673-4.1833 0.32214-5.3965 0.98242-0.63792 0.3472-1.2454 0.78974-1.3496 0.98438-0.16391 0.30628-0.32977 2.9958-0.25781 4.1719 0.022084 0.36094 0.34679 0.39844 3.4258 0.39844 2.7873 0 3.4667 0.064398 3.7598 0.35742 0.26999 0.26999 0.30079 0.46672 0.12305 0.79883-0.2232 0.41704-0.53924 0.43945-6.0488 0.43945-6.723 0-7.1075 0.091835-8.3027 1.9766-0.91874 1.4487-1.2156 3.1281-1.084 6.127 0.092652 2.1115 0.21279 2.749 0.73828 3.9199 0.72117 1.607 1.1155 2.026 2.3262 2.4648 0.47834 0.1734 1.4336 0.29231 2.123 0.26367l1.2539-0.052735 0.125-2.5078c0.12683-2.5272 0.32082-3.1953 1.2129-4.1797 1.0867-1.1992 1.49-1.2795 7.0938-1.4082 4.2349-0.097282 5.373-0.19157 5.9258-0.49023 1.7004-0.91869 1.938-1.7594 1.9375-6.8887-4.28e-4 -4.9832-0.12667-5.3741-2.0508-6.3477-1.318-0.66686-3.4497-1.0043-5.5547-1.0098zm-3.8789 2.0723c0.91053 0.11302 1.6848 1.099 1.2051 2.0098-0.1498 0.28442-0.38552 0.59346-0.52344 0.68555s-0.58184 0.16801-0.98633 0.16992c-1.4559 0.006909-1.8758-1.8225-0.60938-2.6523 0.29221-0.19147 0.61055-0.25056 0.91406-0.21289z" fill="#3465a4"/>
 <path transform="scale(.33333)" d="m35.535 16.314c-0.24436-0.007776-0.50905-0.003782-0.79688 0.009766l-1.4629 0.068359-0.125 2.5078c-0.13042 2.5986-0.31893 3.208-1.3184 4.2793-0.9976 1.0693-2.3277 1.3047-7.3672 1.3047-5.206 0-5.9942 0.17866-6.8535 1.5605-0.48495 0.77984-0.52145 1.1164-0.58984 5.3906-0.07123 4.4517-0.060129 4.5767 0.45703 5.3438 0.63939 0.9483 1.4984 1.4754 3.1562 1.9395 0.93275 0.26115 2.0474 0.32648 4.4355 0.26172 3.5682-0.096765 4.895-0.43076 5.9082-1.4883 0.55447-0.57874 0.62734-0.84088 0.69531-2.5527 0.043039-1.0839-0.025761-2.0316-0.1582-2.1934-0.16803-0.20527-1.2049-0.28516-3.7109-0.28516-3.2184-1e-6 -3.4857-0.033206-3.5898-0.43164-0.061929-0.23682-0.046975-0.53628 0.033203-0.66602 0.092604-0.14984 2.3469-0.26339 6.1816-0.31055 6.7667-0.083211 6.9722-0.12647 8.0039-1.7109 1.1007-1.6905 1.223-2.2705 1.2207-5.7695-0.00204-3.1728-0.0265-3.3551-0.64258-4.5586-1.0296-2.0112-1.766-2.6448-3.4766-2.6992zm-6.9961 17.803c0.13508-0.010484 0.27443-0.001353 0.41211 0.033203 1.1978 0.30063 1.6199 1.4764 0.84961 2.3672-0.79324 0.91739-1.952 0.73245-2.5625-0.4082-0.44628-0.83388 0.35523-1.9188 1.3008-1.9922z" fill="#c17d11"/>
</svg>
