<svg width="64" height="64" version="1.1" viewBox="0 0 16.933 16.933" xmlns="http://www.w3.org/2000/svg">
 <path d="m13.397 1.496c-1.1208 0-2.0293 0.90896-2.0293 2.0298 0 1.1209 0.9085 2.0293 2.0293 2.0293 0.5383 0 1.0544-0.21366 1.435-0.59426 0.3806-0.38061 0.5948-0.89676 0.5948-1.435s-0.2142-1.0544-0.5948-1.435-0.8967-0.59479-1.435-0.59479zm-9.8659 5.2e-4c-0.53828-8e-5 -1.0545 0.21367-1.4352 0.59424-0.38067 0.38057-0.59456 0.89678-0.59461 1.435 5e-5 0.53828 0.21394 1.0545 0.59461 1.435 0.38066 0.38057 0.89692 0.59433 1.4352 0.59424 1.1207-1.1e-4 2.0292-0.90859 2.0293-2.0293-1.2e-4 -1.1207-0.90859-2.0292-2.0293-2.0293zm4.858 4.6627c-1.1207 1.1e-4 -2.0292 0.90859-2.0293 2.0293-9e-5 0.53828 0.21367 1.0545 0.59424 1.4352 0.38057 0.38062 0.89677 0.59452 1.435 0.59462 0.53827-1e-4 1.0545-0.214 1.435-0.59462 0.38055-0.38066 0.59435-0.89692 0.59425-1.4352-1e-4 -1.1207-0.9086-2.0292-2.0293-2.0293zm-4.8585 5.2213c-1.1209 0-2.0298 0.9084-2.0298 2.0293 0 0.5383 0.21367 1.0549 0.59427 1.4355 0.38061 0.3806 0.89726 0.5943 1.4355 0.5943 0.53826 0 1.0544-0.2137 1.435-0.5943 0.3806-0.3806 0.59427-0.8972 0.59427-1.4355 0-1.1209-0.90844-2.0293-2.0293-2.0293zm9.8664 0c-1.1207 1e-4 -2.0292 0.9086-2.0293 2.0293-1e-4 0.5382 0.2136 1.0545 0.5942 1.4352 0.3806 0.3806 0.8968 0.5945 1.4351 0.5946s1.0547-0.2138 1.4353-0.5945c0.3807-0.3806 0.5946-0.897 0.5945-1.4353s-0.214-1.0545-0.5946-1.4351c-0.3807-0.3806-0.897-0.5943-1.4352-0.5942z" fill="#729FCF" stroke-linejoin="round" stroke-width="1.1" style="paint-order:stroke fill markers"/>
</svg>
