<svg width="64" height="64" version="1.1" viewBox="0 0 16.933 16.933" xmlns="http://www.w3.org/2000/svg">
 <path d="m3.53 1.496c-0.53837-8e-5 -1.0547 0.21375-1.4354 0.59443s-0.59451 0.89702-0.59443 1.4354c5e-5 0.53828 0.21394 1.0545 0.59461 1.435 0.38066 0.38057 0.89692 0.59432 1.4352 0.59424 1.1207-1.2e-4 2.0292-0.90859 2.0293-2.0293 8e-5 -0.53827-0.21368-1.0545-0.59425-1.4352-0.38057-0.38067-0.89677-0.59456-1.435-0.59462zm9.8664 9.8845c-1.1207 1e-4 -2.0291 0.9086-2.0293 2.0293 0 0.5382 0.2137 1.0545 0.5943 1.4352 0.3806 0.3806 0.8968 0.5945 1.435 0.5946 0.5383-1e-4 1.0545-0.214 1.4351-0.5946 0.3805-0.3807 0.5943-0.897 0.5942-1.4352-1e-4 -1.1207-0.9086-2.0292-2.0293-2.0293z" fill="#f00" stroke-linejoin="round" stroke-width="1.1" style="paint-order:stroke fill markers"/>
</svg>
