<svg width="64" height="64" version="1.0" xmlns="http://www.w3.org/2000/svg">
 <defs>
  <linearGradient id="linearGradient1475" x1="150.96" x2="112.03" y1="192.35" y2="137.27" gradientTransform="matrix(.56254 0 0 .56797 -9.3997 -5.3053)" gradientUnits="userSpaceOnUse">
   <stop stop-color="#ffd43b" offset="0"/>
   <stop stop-color="#ffe873" offset="1"/>
  </linearGradient>
  <linearGradient id="linearGradient1478" x1="26.649" x2="135.67" y1="20.604" y2="114.4" gradientTransform="matrix(.56254 0 0 .56797 -9.3997 -5.3053)" gradientUnits="userSpaceOnUse">
   <stop stop-color="#5a9fd4" offset="0"/>
   <stop stop-color="#306998" offset="1"/>
  </linearGradient>
 </defs>
 <g transform="matrix(.93312 0 0 .93312 3.0077 2.6875)" stroke-width="2.0545">
  <path transform="matrix(.55901 0 0 .55901 -3.1256 -3.576)" d="m60.51 6.398c-4.5837 0.021298-8.9609 0.41222-12.812 1.0938-11.346 2.0045-13.406 6.2001-13.406 13.938v10.219h26.812v3.4062h-36.875c-7.7925 0-14.616 4.6837-16.75 13.594-2.4618 10.213-2.571 16.586 0 27.25 1.9059 7.9379 6.4575 13.594 14.25 13.594h9.2188v-12.25c0-8.8499 7.6571-16.656 16.75-16.656h26.781c7.455 0 13.406-6.1382 13.406-13.625v-25.531c0-7.2663-6.13-12.725-13.406-13.938-4.606-0.76673-9.3851-1.115-13.969-1.0938zm-14.5 8.2188c2.7695 0 5.0312 2.2986 5.0312 5.125-2e-6 2.8163-2.2617 5.0938-5.0312 5.0938-2.7795-1e-6 -5.0312-2.2774-5.0312-5.0938-1e-6 -2.8264 2.2518-5.125 5.0312-5.125z" fill="url(#linearGradient1478)"/>
  <path transform="matrix(.55901 0 0 .55901 -3.1256 -3.576)" d="m91.229 35.054v11.906c0 9.2308-7.8259 17-16.75 17h-26.781c-7.3358 0-13.406 6.2785-13.406 13.625v25.531c0 7.2663 6.3186 11.54 13.406 13.625 8.4873 2.4956 16.626 2.9466 26.781 0 6.7502-1.9544 13.406-5.8876 13.406-13.625v-10.219h-26.781v-3.4062h40.188c7.7925 0 10.696-5.4354 13.406-13.594 2.7993-8.3989 2.6802-16.476 0-27.25-1.9258-7.7574-5.6039-13.594-13.406-13.594zm-15.062 64.656c2.7795 3e-6 5.0312 2.2774 5.0312 5.0937-2e-6 2.8264-2.2518 5.125-5.0312 5.125-2.7696 0-5.0312-2.2986-5.0312-5.125 2e-6 -2.8163 2.2617-5.0937 5.0312-5.0937z" fill="url(#linearGradient1475)"/>
 </g>
</svg>
