<svg width="64" height="64" version="1.1" viewBox="0 0 16.933 16.933" xmlns="http://www.w3.org/2000/svg">
 <path d="m3.5325 1.4965c-1.1207 1.1e-4 -2.0292 0.90859-2.0293 2.0293 1.1e-4 1.1207 0.90859 2.0292 2.0293 2.0293 1.1207-1.1e-4 2.0292-0.90859 2.0293-2.0293-1.1e-4 -1.1207-0.90859-2.0292-2.0293-2.0293zm9.8659 0c-1.1209 0-2.0293 0.90844-2.0293 2.0293 0 1.1209 0.9084 2.0293 2.0293 2.0293s2.0298-0.90844 2.0298-2.0293c0-1.1209-0.9089-2.0293-2.0298-2.0293zm-9.8664 9.884c-1.1208 0-2.0298 0.9084-2.0298 2.0293 0 0.5383 0.21418 1.0549 0.59479 1.4355s0.89674 0.5943 1.435 0.5943 1.0544-0.2137 1.435-0.5943 0.59427-0.8972 0.59427-1.4355c0-1.1209-0.90845-2.0293-2.0293-2.0293zm9.8674 0c-1.1207 1e-4 -2.0291 0.9086-2.0293 2.0293 0 0.5382 0.2137 1.0545 0.5943 1.4352 0.3805 0.3806 0.8968 0.5945 1.435 0.5946 0.5384 1e-4 1.0547-0.2138 1.4354-0.5945 0.3807-0.3806 0.5945-0.897 0.5944-1.4353 0-0.5383-0.2139-1.0545-0.5946-1.4351-0.3806-0.3806-0.8969-0.5943-1.4352-0.5942z" fill="#8AE234" stroke-linejoin="round" stroke-width="1.1" style="paint-order:stroke fill markers"/>
</svg>
