<svg width="64" height="64" version="1.1" viewBox="0 0 16.933 16.933" xmlns="http://www.w3.org/2000/svg">
 <path transform="scale(.26458)" d="m32 4.334c-7.3381 0-14.376 2.915-19.564 8.1035-5.1887 5.1886-8.1035 12.225-8.1035 19.562 1e-7 15.281 12.387 27.668 27.668 27.668 15.281 0 27.668-12.387 27.668-27.668 0-7.3381-2.915-14.374-8.1035-19.562-5.1886-5.1887-12.226-8.1035-19.564-8.1035zm0 5.0293c6.0042 0 11.762 2.3854 16.008 6.6309 4.2453 4.2455 6.6309 10.002 6.6309 16.006h-0.001953c0 12.503-10.134 22.639-22.637 22.639-12.503 0-22.639-10.136-22.639-22.639 0-6.0039 2.3854-11.761 6.6309-16.006 4.2455-4.2453 10.004-6.6309 16.008-6.6309z" fill="#AD7FA8" style="paint-order:stroke fill markers"/>
</svg>
