<svg width="64" height="64" version="1.1" viewBox="0 0 16.933 16.933" xmlns="http://www.w3.org/2000/svg">
 <path d="m3.4865 1.496c-0.53828 6e-5 -1.0545 0.21395-1.435 0.59462-0.38057 0.38066-0.59432 0.89692-0.59424 1.4352 1.2e-4 1.1207 0.90859 2.0292 2.0293 2.0293 1.1207-1.2e-4 2.0292-0.90859 2.0293-2.0293 8e-5 -0.53827-0.21368-1.0545-0.59425-1.4352-0.38056-0.38067-0.89677-0.59456-1.435-0.59462zm9.9589 0c-0.5382 0-1.0544 0.21418-1.435 0.59479s-0.5943 0.89676-0.5943 1.435 0.2137 1.0544 0.5943 1.435c0.3806 0.3806 0.8968 0.59426 1.435 0.59426 1.1209 0 2.0298-0.90842 2.0298-2.0293 0-1.1209-0.9089-2.0298-2.0298-2.0298zm-9.9589 4.9422c-0.53828 5e-5 -1.0545 0.21394-1.435 0.59461s-0.59432 0.89692-0.59424 1.4352c1.2e-4 1.1207 0.90859 2.0292 2.0293 2.0292 1.1207-1e-4 2.0292-0.90856 2.0293-2.0292 8e-5 -0.53828-0.21368-1.0545-0.59425-1.4352-0.38056-0.38067-0.89677-0.59456-1.435-0.59461zm9.9594 0c-0.5382 5e-5 -1.0544 0.21394-1.435 0.59461s-0.5943 0.89692-0.5943 1.4352c2e-4 1.1207 0.9086 2.0292 2.0293 2.0292 0.5383 1e-4 1.0546-0.2136 1.4352-0.59421 0.3807-0.38057 0.5946-0.89677 0.5946-1.435 1e-4 -0.53837-0.2137-1.0547-0.5944-1.4354s-0.897-0.59451-1.4354-0.59443zm-9.9599 4.9423c-1.1209 0-2.0298 0.9084-2.0298 2.0293 0 0.5383 0.21418 1.0549 0.59479 1.4355s0.89676 0.5943 1.435 0.5943 1.0544-0.2137 1.435-0.5943c0.3806-0.3806 0.59426-0.8972 0.59426-1.4355 0-1.1209-0.90842-2.0293-2.0293-2.0293zm9.9599 0c-1.1207 1e-4 -2.0291 0.9086-2.0293 2.0293 0 0.5382 0.2137 1.0545 0.5943 1.4352 0.3806 0.3806 0.8968 0.5945 1.435 0.5946 0.5384 1e-4 1.0547-0.2138 1.4354-0.5945 0.3807-0.3806 0.5945-0.897 0.5944-1.4353 0-0.5383-0.2139-1.0545-0.5946-1.4351-0.3806-0.3805-0.8969-0.5943-1.4352-0.5942z" fill="#AD7FA8" stroke-linejoin="round" stroke-width="1.1" style="paint-order:stroke fill markers"/>
</svg>
