<svg width="64" height="64" version="1.1" viewBox="0 0 16.933 16.933" xmlns="http://www.w3.org/2000/svg">
 <path d="m8.4665 1.1462c-1.9415 0-3.8035 0.77123-5.1763 2.144-1.3728 1.3728-2.144 3.2349-2.144 5.1763 0 4.043 3.2774 7.3203 7.3203 7.3203 4.0429 0 7.3203-3.2774 7.3203-7.3203 0-1.9415-0.7712-3.8035-2.144-5.1763-1.3728-1.3728-3.2348-2.144-5.1763-2.144zm0 5.4884c0.48587 0 0.95196 0.19284 1.2955 0.53639 0.3435 0.34356 0.5364 0.80964 0.5364 1.2955 0 1.0118-0.82015 1.8319-1.8319 1.8319-1.0118 0-1.8319-0.82013-1.8319-1.8319 0-0.48586 0.19284-0.95196 0.53639-1.2955 0.34356-0.34354 0.80964-0.53639 1.2955-0.53639z" fill="#8AE234" style="paint-order:stroke fill markers"/>
</svg>
