<svg width="64" height="64" version="1.1" xmlns="http://www.w3.org/2000/svg">
 <g stroke-width=".11582">
  <path transform="matrix(2.1708 2.1708 -2.1708 2.1708 2257.5 -2245.6)" d="m11 1028.4v13h7.406c-0.595-1.1-1.416-2.1-2.406-2.8v-8c0.616-0.6 1.131-1.4 1.531-2.2h-5.531z" fill="#808080"/>
  <path transform="matrix(2.1708 2.1708 -2.1708 2.1708 25.06 -13.184)" d="m11 13v8l1 2v-10z" fill="#bdc3c7"/>
  <path transform="matrix(2.1708 2.1708 -2.1708 2.1708 25.06 -13.184)" d="m12 13v10l1-2v-8z" fill="#7f8c8d"/>
  <path transform="matrix(2.1708 2.1708 -2.1708 2.1708 2257.5 -2245.6)" d="m6.4688 1028.4c0.4006 0.8 0.915 1.6 1.5312 2.2v8c-0.9897 0.7-1.8113 1.7-2.4062 2.8h6.4062v-13z" fill="#999"/>
 </g>
 <path transform="matrix(3.0698 0 0 3.0698 -7.1371 -2.4765)" d="m15.062 1.0861c4.5476-0.10043 8.1421 1.1292 7.8222 7.8222z" fill="#ccc" stroke-width=".35556"/>
 <path transform="matrix(-3.6359 -.0094082 .0094546 -3.6182 92.105 59.624)" d="m15.062 1.0861c0.04905 0.37596 4.5436 1.5103 7.8222 7.8222z" fill="#b3b3b3" stroke-width=".35556"/>
</svg>
